<mxfile host="app.diagrams.net" agent="Mozilla/5.0 (X11; Linux x86_64; rv:138.0) Gecko/20100101 Firefox/138.0" version="27.0.6">
  <diagram name="Page-1" id="GqUmpZvGIh4dHvEs5y8a">
    <mxGraphModel dx="1426" dy="836" grid="1" gridSize="10" guides="1" tooltips="1" connect="1" arrows="1" fold="1" page="1" pageScale="1" pageWidth="850" pageHeight="1100" math="0" shadow="0">
      <root>
        <mxCell id="0" />
        <mxCell id="1" parent="0" />
        <mxCell id="7pL1vy89-nhijJ_iRDwn-218" style="edgeStyle=orthogonalEdgeStyle;rounded=0;orthogonalLoop=1;jettySize=auto;html=1;exitX=1;exitY=0.5;exitDx=0;exitDy=0;endArrow=none;endFill=0;" edge="1" parent="1" source="7pL1vy89-nhijJ_iRDwn-220">
          <mxGeometry relative="1" as="geometry">
            <mxPoint x="687" y="795" as="targetPoint" />
          </mxGeometry>
        </mxCell>
        <mxCell id="7pL1vy89-nhijJ_iRDwn-219" style="edgeStyle=orthogonalEdgeStyle;rounded=0;orthogonalLoop=1;jettySize=auto;html=1;exitX=1;exitY=0.75;exitDx=0;exitDy=0;endArrow=none;endFill=0;entryX=0.5;entryY=1;entryDx=0;entryDy=0;" edge="1" parent="1">
          <mxGeometry relative="1" as="geometry">
            <mxPoint x="949" y="855.9999999999999" as="targetPoint" />
            <mxPoint x="539" y="544" as="sourcePoint" />
            <Array as="points">
              <mxPoint x="539" y="549" />
              <mxPoint x="634" y="549" />
              <mxPoint x="634" y="898" />
              <mxPoint x="949" y="898" />
            </Array>
          </mxGeometry>
        </mxCell>
        <mxCell id="7pL1vy89-nhijJ_iRDwn-220" value="Compra" style="rounded=0;whiteSpace=wrap;html=1;" vertex="1" parent="1">
          <mxGeometry x="419" y="505" width="120" height="60" as="geometry" />
        </mxCell>
        <mxCell id="7pL1vy89-nhijJ_iRDwn-221" value="Producto" style="rounded=0;whiteSpace=wrap;html=1;" vertex="1" parent="1">
          <mxGeometry x="419" y="678" width="120" height="60" as="geometry" />
        </mxCell>
        <mxCell id="7pL1vy89-nhijJ_iRDwn-331" style="edgeStyle=orthogonalEdgeStyle;rounded=0;orthogonalLoop=1;jettySize=auto;html=1;exitX=0.25;exitY=1;exitDx=0;exitDy=0;entryX=0.5;entryY=0;entryDx=0;entryDy=0;endArrow=none;startFill=0;" edge="1" parent="1" source="7pL1vy89-nhijJ_iRDwn-222" target="7pL1vy89-nhijJ_iRDwn-327">
          <mxGeometry relative="1" as="geometry" />
        </mxCell>
        <mxCell id="7pL1vy89-nhijJ_iRDwn-332" style="edgeStyle=orthogonalEdgeStyle;rounded=0;orthogonalLoop=1;jettySize=auto;html=1;exitX=0.75;exitY=1;exitDx=0;exitDy=0;endArrow=none;startFill=0;" edge="1" parent="1" source="7pL1vy89-nhijJ_iRDwn-222">
          <mxGeometry relative="1" as="geometry">
            <mxPoint x="949" y="663" as="targetPoint" />
          </mxGeometry>
        </mxCell>
        <mxCell id="7pL1vy89-nhijJ_iRDwn-222" value="Persona" style="rounded=0;whiteSpace=wrap;html=1;" vertex="1" parent="1">
          <mxGeometry x="774" y="510" width="120" height="60" as="geometry" />
        </mxCell>
        <mxCell id="7pL1vy89-nhijJ_iRDwn-224" value="Cliente" style="rounded=0;whiteSpace=wrap;html=1;" vertex="1" parent="1">
          <mxGeometry x="669" y="795" width="120" height="60" as="geometry" />
        </mxCell>
        <mxCell id="7pL1vy89-nhijJ_iRDwn-330" style="edgeStyle=orthogonalEdgeStyle;rounded=0;orthogonalLoop=1;jettySize=auto;html=1;entryX=0.5;entryY=1;entryDx=0;entryDy=0;endArrow=none;startFill=0;" edge="1" parent="1" source="7pL1vy89-nhijJ_iRDwn-225" target="7pL1vy89-nhijJ_iRDwn-328">
          <mxGeometry relative="1" as="geometry" />
        </mxCell>
        <mxCell id="7pL1vy89-nhijJ_iRDwn-225" value="Empleado" style="rounded=0;whiteSpace=wrap;html=1;" vertex="1" parent="1">
          <mxGeometry x="889" y="795" width="120" height="60" as="geometry" />
        </mxCell>
        <mxCell id="7pL1vy89-nhijJ_iRDwn-226" value="" style="endArrow=none;html=1;rounded=0;entryX=0.5;entryY=1;entryDx=0;entryDy=0;" edge="1" parent="1" source="7pL1vy89-nhijJ_iRDwn-228" target="7pL1vy89-nhijJ_iRDwn-220">
          <mxGeometry width="50" height="50" relative="1" as="geometry">
            <mxPoint x="644" y="678" as="sourcePoint" />
            <mxPoint x="694" y="628" as="targetPoint" />
          </mxGeometry>
        </mxCell>
        <mxCell id="7pL1vy89-nhijJ_iRDwn-227" value="" style="endArrow=none;html=1;rounded=0;entryX=0.5;entryY=1;entryDx=0;entryDy=0;" edge="1" parent="1" source="7pL1vy89-nhijJ_iRDwn-221" target="7pL1vy89-nhijJ_iRDwn-228">
          <mxGeometry width="50" height="50" relative="1" as="geometry">
            <mxPoint x="479" y="678" as="sourcePoint" />
            <mxPoint x="479" y="578" as="targetPoint" />
          </mxGeometry>
        </mxCell>
        <mxCell id="7pL1vy89-nhijJ_iRDwn-228" value="tiene" style="rhombus;whiteSpace=wrap;html=1;" vertex="1" parent="1">
          <mxGeometry x="439" y="608" width="80" height="40" as="geometry" />
        </mxCell>
        <mxCell id="7pL1vy89-nhijJ_iRDwn-229" value="(1,N)" style="text;html=1;align=center;verticalAlign=middle;resizable=0;points=[];autosize=1;strokeColor=none;fillColor=none;" vertex="1" parent="1">
          <mxGeometry x="475" y="560" width="50" height="30" as="geometry" />
        </mxCell>
        <mxCell id="7pL1vy89-nhijJ_iRDwn-230" value="(0,N)" style="text;html=1;align=center;verticalAlign=middle;resizable=0;points=[];autosize=1;strokeColor=none;fillColor=none;" vertex="1" parent="1">
          <mxGeometry x="475" y="651" width="50" height="30" as="geometry" />
        </mxCell>
        <mxCell id="7pL1vy89-nhijJ_iRDwn-233" value="de" style="rhombus;whiteSpace=wrap;html=1;" vertex="1" parent="1">
          <mxGeometry x="663" y="515" width="50" height="40" as="geometry" />
        </mxCell>
        <mxCell id="7pL1vy89-nhijJ_iRDwn-234" value="(1,1)" style="text;html=1;align=center;verticalAlign=middle;resizable=0;points=[];autosize=1;strokeColor=none;fillColor=none;" vertex="1" parent="1">
          <mxGeometry x="539" y="507" width="50" height="30" as="geometry" />
        </mxCell>
        <mxCell id="7pL1vy89-nhijJ_iRDwn-235" value="(0,1)" style="text;html=1;align=center;verticalAlign=middle;resizable=0;points=[];autosize=1;strokeColor=none;fillColor=none;" vertex="1" parent="1">
          <mxGeometry x="539" y="548" width="50" height="30" as="geometry" />
        </mxCell>
        <mxCell id="7pL1vy89-nhijJ_iRDwn-236" value="interviene" style="rhombus;whiteSpace=wrap;html=1;" vertex="1" parent="1">
          <mxGeometry x="899" y="883" width="100" height="30" as="geometry" />
        </mxCell>
        <mxCell id="7pL1vy89-nhijJ_iRDwn-237" value="(0,N)" style="text;html=1;align=center;verticalAlign=middle;resizable=0;points=[];autosize=1;strokeColor=none;fillColor=none;" vertex="1" parent="1">
          <mxGeometry x="955" y="850.5" width="50" height="30" as="geometry" />
        </mxCell>
        <mxCell id="7pL1vy89-nhijJ_iRDwn-238" value="supervisa" style="rhombus;whiteSpace=wrap;html=1;" vertex="1" parent="1">
          <mxGeometry x="1082" y="840" width="80" height="51" as="geometry" />
        </mxCell>
        <mxCell id="7pL1vy89-nhijJ_iRDwn-239" value="" style="endArrow=none;html=1;rounded=0;entryX=0.5;entryY=0;entryDx=0;entryDy=0;exitX=1;exitY=0.5;exitDx=0;exitDy=0;" edge="1" parent="1" source="7pL1vy89-nhijJ_iRDwn-225" target="7pL1vy89-nhijJ_iRDwn-238">
          <mxGeometry width="50" height="50" relative="1" as="geometry">
            <mxPoint x="1009" y="815" as="sourcePoint" />
            <mxPoint x="1119" y="895" as="targetPoint" />
          </mxGeometry>
        </mxCell>
        <mxCell id="7pL1vy89-nhijJ_iRDwn-240" value="" style="endArrow=none;html=1;rounded=0;entryX=0.5;entryY=1;entryDx=0;entryDy=0;" edge="1" parent="1" target="7pL1vy89-nhijJ_iRDwn-238">
          <mxGeometry width="50" height="50" relative="1" as="geometry">
            <mxPoint x="1009" y="850" as="sourcePoint" />
            <mxPoint x="1129" y="834" as="targetPoint" />
          </mxGeometry>
        </mxCell>
        <mxCell id="7pL1vy89-nhijJ_iRDwn-241" value="(0,1)" style="text;html=1;align=center;verticalAlign=middle;resizable=0;points=[];autosize=1;strokeColor=none;fillColor=none;rotation=20;" vertex="1" parent="1">
          <mxGeometry x="1018" y="855" width="50" height="30" as="geometry" />
        </mxCell>
        <mxCell id="7pL1vy89-nhijJ_iRDwn-242" value="(0,N)" style="text;html=1;align=center;verticalAlign=middle;resizable=0;points=[];autosize=1;strokeColor=none;fillColor=none;rotation=10;" vertex="1" parent="1">
          <mxGeometry x="1032" y="823" width="50" height="30" as="geometry" />
        </mxCell>
        <mxCell id="7pL1vy89-nhijJ_iRDwn-245" value="" style="group" vertex="1" connectable="0" parent="1">
          <mxGeometry x="539" y="687" width="26" height="6" as="geometry" />
        </mxCell>
        <mxCell id="7pL1vy89-nhijJ_iRDwn-246" value="" style="ellipse;whiteSpace=wrap;html=1;aspect=fixed;fillColor=#000000;" vertex="1" parent="7pL1vy89-nhijJ_iRDwn-245">
          <mxGeometry x="20" width="6" height="6" as="geometry" />
        </mxCell>
        <mxCell id="7pL1vy89-nhijJ_iRDwn-247" value="" style="endArrow=none;html=1;rounded=0;exitX=0;exitY=0.5;exitDx=0;exitDy=0;" edge="1" parent="7pL1vy89-nhijJ_iRDwn-245" source="7pL1vy89-nhijJ_iRDwn-246">
          <mxGeometry width="50" height="50" relative="1" as="geometry">
            <mxPoint x="20" y="14" as="sourcePoint" />
            <mxPoint y="3" as="targetPoint" />
          </mxGeometry>
        </mxCell>
        <mxCell id="7pL1vy89-nhijJ_iRDwn-248" value="" style="group" vertex="1" connectable="0" parent="1">
          <mxGeometry x="539" y="699" width="26" height="6" as="geometry" />
        </mxCell>
        <mxCell id="7pL1vy89-nhijJ_iRDwn-249" value="" style="ellipse;whiteSpace=wrap;html=1;aspect=fixed;" vertex="1" parent="7pL1vy89-nhijJ_iRDwn-248">
          <mxGeometry x="20" width="6" height="6" as="geometry" />
        </mxCell>
        <mxCell id="7pL1vy89-nhijJ_iRDwn-250" value="" style="endArrow=none;html=1;rounded=0;exitX=0;exitY=0.5;exitDx=0;exitDy=0;" edge="1" parent="7pL1vy89-nhijJ_iRDwn-248" source="7pL1vy89-nhijJ_iRDwn-249">
          <mxGeometry width="50" height="50" relative="1" as="geometry">
            <mxPoint x="20" y="14" as="sourcePoint" />
            <mxPoint y="3" as="targetPoint" />
          </mxGeometry>
        </mxCell>
        <mxCell id="7pL1vy89-nhijJ_iRDwn-251" value="" style="group" vertex="1" connectable="0" parent="1">
          <mxGeometry x="539" y="711" width="26" height="6" as="geometry" />
        </mxCell>
        <mxCell id="7pL1vy89-nhijJ_iRDwn-252" value="" style="ellipse;whiteSpace=wrap;html=1;aspect=fixed;" vertex="1" parent="7pL1vy89-nhijJ_iRDwn-251">
          <mxGeometry x="20" width="6" height="6" as="geometry" />
        </mxCell>
        <mxCell id="7pL1vy89-nhijJ_iRDwn-253" value="" style="endArrow=none;html=1;rounded=0;exitX=0;exitY=0.5;exitDx=0;exitDy=0;" edge="1" parent="7pL1vy89-nhijJ_iRDwn-251" source="7pL1vy89-nhijJ_iRDwn-252">
          <mxGeometry width="50" height="50" relative="1" as="geometry">
            <mxPoint x="20" y="14" as="sourcePoint" />
            <mxPoint y="3" as="targetPoint" />
          </mxGeometry>
        </mxCell>
        <mxCell id="7pL1vy89-nhijJ_iRDwn-254" value="" style="group" vertex="1" connectable="0" parent="1">
          <mxGeometry x="539" y="723" width="26" height="6" as="geometry" />
        </mxCell>
        <mxCell id="7pL1vy89-nhijJ_iRDwn-255" value="" style="ellipse;whiteSpace=wrap;html=1;aspect=fixed;" vertex="1" parent="7pL1vy89-nhijJ_iRDwn-254">
          <mxGeometry x="20" width="6" height="6" as="geometry" />
        </mxCell>
        <mxCell id="7pL1vy89-nhijJ_iRDwn-256" value="" style="endArrow=none;html=1;rounded=0;exitX=0;exitY=0.5;exitDx=0;exitDy=0;" edge="1" parent="7pL1vy89-nhijJ_iRDwn-254" source="7pL1vy89-nhijJ_iRDwn-255">
          <mxGeometry width="50" height="50" relative="1" as="geometry">
            <mxPoint x="20" y="14" as="sourcePoint" />
            <mxPoint y="3" as="targetPoint" />
          </mxGeometry>
        </mxCell>
        <mxCell id="7pL1vy89-nhijJ_iRDwn-257" value="&lt;font style=&quot;font-size: 10px;&quot;&gt;codigo&lt;/font&gt;" style="text;html=1;align=center;verticalAlign=middle;resizable=0;points=[];autosize=1;strokeColor=none;fillColor=none;" vertex="1" parent="1">
          <mxGeometry x="562" y="673" width="50" height="30" as="geometry" />
        </mxCell>
        <mxCell id="7pL1vy89-nhijJ_iRDwn-258" value="&lt;font style=&quot;font-size: 10px;&quot;&gt;nombre&lt;/font&gt;" style="text;html=1;align=center;verticalAlign=middle;resizable=0;points=[];autosize=1;strokeColor=none;fillColor=none;" vertex="1" parent="1">
          <mxGeometry x="558" y="685" width="60" height="30" as="geometry" />
        </mxCell>
        <mxCell id="7pL1vy89-nhijJ_iRDwn-259" value="&lt;font style=&quot;font-size: 10px;&quot;&gt;precio&lt;/font&gt;" style="text;html=1;align=center;verticalAlign=middle;resizable=0;points=[];autosize=1;strokeColor=none;fillColor=none;" vertex="1" parent="1">
          <mxGeometry x="563" y="697" width="50" height="30" as="geometry" />
        </mxCell>
        <mxCell id="7pL1vy89-nhijJ_iRDwn-260" value="&lt;font style=&quot;font-size: 10px;&quot;&gt;stock&lt;/font&gt;" style="text;html=1;align=center;verticalAlign=middle;resizable=0;points=[];autosize=1;strokeColor=none;fillColor=none;" vertex="1" parent="1">
          <mxGeometry x="560" y="709" width="50" height="30" as="geometry" />
        </mxCell>
        <mxCell id="7pL1vy89-nhijJ_iRDwn-261" value="" style="group" vertex="1" connectable="0" parent="1">
          <mxGeometry x="499" y="615" width="26" height="6" as="geometry" />
        </mxCell>
        <mxCell id="7pL1vy89-nhijJ_iRDwn-262" value="" style="ellipse;whiteSpace=wrap;html=1;aspect=fixed;" vertex="1" parent="7pL1vy89-nhijJ_iRDwn-261">
          <mxGeometry x="20" width="6" height="6" as="geometry" />
        </mxCell>
        <mxCell id="7pL1vy89-nhijJ_iRDwn-263" value="" style="endArrow=none;html=1;rounded=0;exitX=0;exitY=0.5;exitDx=0;exitDy=0;" edge="1" parent="7pL1vy89-nhijJ_iRDwn-261" source="7pL1vy89-nhijJ_iRDwn-262">
          <mxGeometry width="50" height="50" relative="1" as="geometry">
            <mxPoint x="20" y="14" as="sourcePoint" />
            <mxPoint y="3" as="targetPoint" />
          </mxGeometry>
        </mxCell>
        <mxCell id="7pL1vy89-nhijJ_iRDwn-264" value="" style="group" vertex="1" connectable="0" parent="1">
          <mxGeometry x="499" y="635" width="26" height="6" as="geometry" />
        </mxCell>
        <mxCell id="7pL1vy89-nhijJ_iRDwn-265" value="" style="ellipse;whiteSpace=wrap;html=1;aspect=fixed;" vertex="1" parent="7pL1vy89-nhijJ_iRDwn-264">
          <mxGeometry x="20" width="6" height="6" as="geometry" />
        </mxCell>
        <mxCell id="7pL1vy89-nhijJ_iRDwn-266" value="" style="endArrow=none;html=1;rounded=0;exitX=0;exitY=0.5;exitDx=0;exitDy=0;" edge="1" parent="7pL1vy89-nhijJ_iRDwn-264" source="7pL1vy89-nhijJ_iRDwn-265">
          <mxGeometry width="50" height="50" relative="1" as="geometry">
            <mxPoint x="20" y="14" as="sourcePoint" />
            <mxPoint y="3" as="targetPoint" />
          </mxGeometry>
        </mxCell>
        <mxCell id="7pL1vy89-nhijJ_iRDwn-267" value="&lt;font style=&quot;font-size: 10px;&quot;&gt;cantidad&lt;/font&gt;" style="text;html=1;align=center;verticalAlign=middle;resizable=0;points=[];autosize=1;strokeColor=none;fillColor=none;" vertex="1" parent="1">
          <mxGeometry x="516" y="621" width="70" height="30" as="geometry" />
        </mxCell>
        <mxCell id="7pL1vy89-nhijJ_iRDwn-268" value="&lt;font style=&quot;font-size: 10px;&quot;&gt;precio&lt;/font&gt;" style="text;html=1;align=center;verticalAlign=middle;resizable=0;points=[];autosize=1;strokeColor=none;fillColor=none;" vertex="1" parent="1">
          <mxGeometry x="520" y="600" width="50" height="30" as="geometry" />
        </mxCell>
        <mxCell id="7pL1vy89-nhijJ_iRDwn-269" value="&lt;font style=&quot;font-size: 10px;&quot;&gt;Nro_ticket&lt;/font&gt;" style="text;html=1;align=center;verticalAlign=middle;resizable=0;points=[];autosize=1;strokeColor=none;fillColor=none;" vertex="1" parent="1">
          <mxGeometry x="325" y="507" width="70" height="30" as="geometry" />
        </mxCell>
        <mxCell id="7pL1vy89-nhijJ_iRDwn-270" value="&lt;font style=&quot;font-size: 10px;&quot;&gt;precio&lt;/font&gt;" style="text;html=1;align=center;verticalAlign=middle;resizable=0;points=[];autosize=1;strokeColor=none;fillColor=none;" vertex="1" parent="1">
          <mxGeometry x="347" y="526" width="50" height="30" as="geometry" />
        </mxCell>
        <mxCell id="7pL1vy89-nhijJ_iRDwn-271" value="" style="group;rotation=-180;" vertex="1" connectable="0" parent="1">
          <mxGeometry x="393" y="521" width="26" height="6" as="geometry" />
        </mxCell>
        <mxCell id="7pL1vy89-nhijJ_iRDwn-272" value="" style="ellipse;whiteSpace=wrap;html=1;aspect=fixed;fillColor=#000000;container=0;rotation=-180;" vertex="1" parent="7pL1vy89-nhijJ_iRDwn-271">
          <mxGeometry width="6" height="6" as="geometry" />
        </mxCell>
        <mxCell id="7pL1vy89-nhijJ_iRDwn-273" value="" style="endArrow=none;html=1;rounded=0;exitX=0;exitY=0.5;exitDx=0;exitDy=0;" edge="1" parent="7pL1vy89-nhijJ_iRDwn-271" source="7pL1vy89-nhijJ_iRDwn-272">
          <mxGeometry width="50" height="50" relative="1" as="geometry">
            <mxPoint x="6" y="-8" as="sourcePoint" />
            <mxPoint x="26" y="3" as="targetPoint" />
          </mxGeometry>
        </mxCell>
        <mxCell id="7pL1vy89-nhijJ_iRDwn-274" value="" style="group;rotation=-180;" vertex="1" connectable="0" parent="1">
          <mxGeometry x="393" y="540" width="26" height="6" as="geometry" />
        </mxCell>
        <mxCell id="7pL1vy89-nhijJ_iRDwn-275" value="" style="ellipse;whiteSpace=wrap;html=1;aspect=fixed;container=0;rotation=-180;" vertex="1" parent="7pL1vy89-nhijJ_iRDwn-274">
          <mxGeometry width="6" height="6" as="geometry" />
        </mxCell>
        <mxCell id="7pL1vy89-nhijJ_iRDwn-276" value="" style="endArrow=none;html=1;rounded=0;exitX=0;exitY=0.5;exitDx=0;exitDy=0;" edge="1" parent="7pL1vy89-nhijJ_iRDwn-274" source="7pL1vy89-nhijJ_iRDwn-275">
          <mxGeometry width="50" height="50" relative="1" as="geometry">
            <mxPoint x="6" y="-8" as="sourcePoint" />
            <mxPoint x="26" y="3" as="targetPoint" />
          </mxGeometry>
        </mxCell>
        <mxCell id="7pL1vy89-nhijJ_iRDwn-277" value="" style="group" vertex="1" connectable="0" parent="1">
          <mxGeometry x="1009" y="811" width="26" height="6" as="geometry" />
        </mxCell>
        <mxCell id="7pL1vy89-nhijJ_iRDwn-278" value="" style="ellipse;whiteSpace=wrap;html=1;aspect=fixed;fillColor=#000000;" vertex="1" parent="7pL1vy89-nhijJ_iRDwn-277">
          <mxGeometry x="20" width="6" height="6" as="geometry" />
        </mxCell>
        <mxCell id="7pL1vy89-nhijJ_iRDwn-279" value="" style="endArrow=none;html=1;rounded=0;exitX=0;exitY=0.5;exitDx=0;exitDy=0;" edge="1" parent="7pL1vy89-nhijJ_iRDwn-277" source="7pL1vy89-nhijJ_iRDwn-278">
          <mxGeometry width="50" height="50" relative="1" as="geometry">
            <mxPoint x="20" y="14" as="sourcePoint" />
            <mxPoint y="3" as="targetPoint" />
          </mxGeometry>
        </mxCell>
        <mxCell id="7pL1vy89-nhijJ_iRDwn-284" value="&lt;font style=&quot;font-size: 10px;&quot;&gt;CUIT&lt;/font&gt;" style="text;html=1;align=center;verticalAlign=middle;resizable=0;points=[];autosize=1;strokeColor=none;fillColor=none;" vertex="1" parent="1">
          <mxGeometry x="1026" y="798" width="50" height="30" as="geometry" />
        </mxCell>
        <mxCell id="7pL1vy89-nhijJ_iRDwn-285" value="" style="group" vertex="1" connectable="0" parent="1">
          <mxGeometry x="894" y="519" width="26" height="6" as="geometry" />
        </mxCell>
        <mxCell id="7pL1vy89-nhijJ_iRDwn-286" value="" style="ellipse;whiteSpace=wrap;html=1;aspect=fixed;fillColor=#000000;" vertex="1" parent="7pL1vy89-nhijJ_iRDwn-285">
          <mxGeometry x="20" width="6" height="6" as="geometry" />
        </mxCell>
        <mxCell id="7pL1vy89-nhijJ_iRDwn-287" value="" style="endArrow=none;html=1;rounded=0;exitX=0;exitY=0.5;exitDx=0;exitDy=0;" edge="1" parent="7pL1vy89-nhijJ_iRDwn-285" source="7pL1vy89-nhijJ_iRDwn-286">
          <mxGeometry width="50" height="50" relative="1" as="geometry">
            <mxPoint x="20" y="14" as="sourcePoint" />
            <mxPoint y="3" as="targetPoint" />
          </mxGeometry>
        </mxCell>
        <mxCell id="7pL1vy89-nhijJ_iRDwn-288" value="" style="group" vertex="1" connectable="0" parent="1">
          <mxGeometry x="894" y="534" width="26" height="6" as="geometry" />
        </mxCell>
        <mxCell id="7pL1vy89-nhijJ_iRDwn-289" value="" style="ellipse;whiteSpace=wrap;html=1;aspect=fixed;" vertex="1" parent="7pL1vy89-nhijJ_iRDwn-288">
          <mxGeometry x="20" width="6" height="6" as="geometry" />
        </mxCell>
        <mxCell id="7pL1vy89-nhijJ_iRDwn-290" value="" style="endArrow=none;html=1;rounded=0;exitX=0;exitY=0.5;exitDx=0;exitDy=0;" edge="1" parent="7pL1vy89-nhijJ_iRDwn-288" source="7pL1vy89-nhijJ_iRDwn-289">
          <mxGeometry width="50" height="50" relative="1" as="geometry">
            <mxPoint x="20" y="14" as="sourcePoint" />
            <mxPoint y="3" as="targetPoint" />
          </mxGeometry>
        </mxCell>
        <mxCell id="7pL1vy89-nhijJ_iRDwn-291" value="&lt;font style=&quot;font-size: 10px;&quot;&gt;DNI&lt;/font&gt;" style="text;html=1;align=center;verticalAlign=middle;resizable=0;points=[];autosize=1;strokeColor=none;fillColor=none;" vertex="1" parent="1">
          <mxGeometry x="915" y="505" width="40" height="30" as="geometry" />
        </mxCell>
        <mxCell id="7pL1vy89-nhijJ_iRDwn-292" value="&lt;font style=&quot;font-size: 10px;&quot;&gt;ApellidoyNombre&lt;/font&gt;" style="text;html=1;align=center;verticalAlign=middle;resizable=0;points=[];autosize=1;strokeColor=none;fillColor=none;" vertex="1" parent="1">
          <mxGeometry x="913" y="521" width="110" height="30" as="geometry" />
        </mxCell>
        <mxCell id="7pL1vy89-nhijJ_iRDwn-309" value="(0,N)" style="text;html=1;align=center;verticalAlign=middle;resizable=0;points=[];autosize=1;strokeColor=none;fillColor=none;" vertex="1" parent="1">
          <mxGeometry x="640" y="768" width="50" height="30" as="geometry" />
        </mxCell>
        <mxCell id="7pL1vy89-nhijJ_iRDwn-310" value="" style="group" vertex="1" connectable="0" parent="1">
          <mxGeometry x="894" y="552" width="26" height="6" as="geometry" />
        </mxCell>
        <mxCell id="7pL1vy89-nhijJ_iRDwn-311" value="" style="ellipse;whiteSpace=wrap;html=1;aspect=fixed;" vertex="1" parent="7pL1vy89-nhijJ_iRDwn-310">
          <mxGeometry x="20" width="6" height="6" as="geometry" />
        </mxCell>
        <mxCell id="7pL1vy89-nhijJ_iRDwn-312" value="" style="endArrow=none;html=1;rounded=0;exitX=0;exitY=0.5;exitDx=0;exitDy=0;" edge="1" parent="7pL1vy89-nhijJ_iRDwn-310" source="7pL1vy89-nhijJ_iRDwn-311">
          <mxGeometry width="50" height="50" relative="1" as="geometry">
            <mxPoint x="20" y="14" as="sourcePoint" />
            <mxPoint y="3" as="targetPoint" />
          </mxGeometry>
        </mxCell>
        <mxCell id="7pL1vy89-nhijJ_iRDwn-313" value="&lt;font style=&quot;font-size: 10px;&quot;&gt;direccion&lt;/font&gt;" style="text;html=1;align=center;verticalAlign=middle;resizable=0;points=[];autosize=1;strokeColor=none;fillColor=none;" vertex="1" parent="1">
          <mxGeometry x="912" y="538" width="80" height="30" as="geometry" />
        </mxCell>
        <mxCell id="7pL1vy89-nhijJ_iRDwn-314" value="Area" style="rounded=0;whiteSpace=wrap;html=1;" vertex="1" parent="1">
          <mxGeometry x="1242" y="774" width="120" height="60" as="geometry" />
        </mxCell>
        <mxCell id="7pL1vy89-nhijJ_iRDwn-315" value="" style="group;rotation=-90;" vertex="1" connectable="0" parent="1">
          <mxGeometry x="1289" y="758" width="26" height="6" as="geometry" />
        </mxCell>
        <mxCell id="7pL1vy89-nhijJ_iRDwn-316" value="" style="ellipse;whiteSpace=wrap;html=1;aspect=fixed;fillColor=#000000;rotation=-90;" vertex="1" parent="7pL1vy89-nhijJ_iRDwn-315">
          <mxGeometry x="10" y="-10" width="6" height="6" as="geometry" />
        </mxCell>
        <mxCell id="7pL1vy89-nhijJ_iRDwn-317" value="" style="endArrow=none;html=1;rounded=0;exitX=0;exitY=0.5;exitDx=0;exitDy=0;" edge="1" parent="7pL1vy89-nhijJ_iRDwn-315" source="7pL1vy89-nhijJ_iRDwn-316">
          <mxGeometry width="50" height="50" relative="1" as="geometry">
            <mxPoint x="24" y="-4" as="sourcePoint" />
            <mxPoint x="13" y="16" as="targetPoint" />
          </mxGeometry>
        </mxCell>
        <mxCell id="7pL1vy89-nhijJ_iRDwn-318" value="&lt;font style=&quot;font-size: 10px;&quot;&gt;nombre&lt;/font&gt;" style="text;html=1;align=center;verticalAlign=middle;resizable=0;points=[];autosize=1;strokeColor=none;fillColor=none;" vertex="1" parent="1">
          <mxGeometry x="1271" y="723" width="60" height="30" as="geometry" />
        </mxCell>
        <mxCell id="7pL1vy89-nhijJ_iRDwn-319" value="" style="endArrow=none;html=1;rounded=0;entryX=0;entryY=0.5;entryDx=0;entryDy=0;" edge="1" parent="1" target="7pL1vy89-nhijJ_iRDwn-314">
          <mxGeometry width="50" height="50" relative="1" as="geometry">
            <mxPoint x="1009" y="804" as="sourcePoint" />
            <mxPoint x="1225" y="807" as="targetPoint" />
          </mxGeometry>
        </mxCell>
        <mxCell id="7pL1vy89-nhijJ_iRDwn-320" value="tiene_a" style="rhombus;whiteSpace=wrap;html=1;" vertex="1" parent="1">
          <mxGeometry x="1085" y="779" width="80" height="51" as="geometry" />
        </mxCell>
        <mxCell id="7pL1vy89-nhijJ_iRDwn-321" value="(1,N)" style="text;html=1;align=center;verticalAlign=middle;resizable=0;points=[];autosize=1;strokeColor=none;fillColor=none;rotation=0;" vertex="1" parent="1">
          <mxGeometry x="1007.0049164903091" y="774.0033207368564" width="60" height="30" as="geometry" />
        </mxCell>
        <mxCell id="7pL1vy89-nhijJ_iRDwn-322" value="(1,1)" style="text;html=1;align=center;verticalAlign=middle;resizable=0;points=[];autosize=1;strokeColor=none;fillColor=none;rotation=0;" vertex="1" parent="1">
          <mxGeometry x="1182" y="774" width="60" height="30" as="geometry" />
        </mxCell>
        <mxCell id="7pL1vy89-nhijJ_iRDwn-323" value="" style="curved=1;endArrow=none;html=1;rounded=0;startFill=0;" edge="1" parent="1">
          <mxGeometry width="50" height="50" relative="1" as="geometry">
            <mxPoint x="1062" y="804" as="sourcePoint" />
            <mxPoint x="1316" y="763" as="targetPoint" />
            <Array as="points">
              <mxPoint x="1095" y="788" />
              <mxPoint x="1126" y="773" />
            </Array>
          </mxGeometry>
        </mxCell>
        <mxCell id="7pL1vy89-nhijJ_iRDwn-324" value="" style="group;rotation=-90;" vertex="1" connectable="0" parent="1">
          <mxGeometry x="1303" y="770" width="26" height="6" as="geometry" />
        </mxCell>
        <mxCell id="7pL1vy89-nhijJ_iRDwn-325" value="" style="ellipse;whiteSpace=wrap;html=1;aspect=fixed;fillColor=#000000;rotation=-90;" vertex="1" parent="7pL1vy89-nhijJ_iRDwn-324">
          <mxGeometry x="10" y="-10" width="6" height="6" as="geometry" />
        </mxCell>
        <mxCell id="7pL1vy89-nhijJ_iRDwn-329" style="edgeStyle=orthogonalEdgeStyle;rounded=0;orthogonalLoop=1;jettySize=auto;html=1;endArrow=none;startFill=0;" edge="1" parent="1" source="7pL1vy89-nhijJ_iRDwn-327" target="7pL1vy89-nhijJ_iRDwn-224">
          <mxGeometry relative="1" as="geometry" />
        </mxCell>
        <mxCell id="7pL1vy89-nhijJ_iRDwn-327" value="es_un1" style="rhombus;whiteSpace=wrap;html=1;" vertex="1" parent="1">
          <mxGeometry x="696" y="662.5" width="66" height="51" as="geometry" />
        </mxCell>
        <mxCell id="7pL1vy89-nhijJ_iRDwn-328" value="es_un2" style="rhombus;whiteSpace=wrap;html=1;" vertex="1" parent="1">
          <mxGeometry x="916" y="662.5" width="66" height="51" as="geometry" />
        </mxCell>
        <mxCell id="7pL1vy89-nhijJ_iRDwn-334" value="" style="curved=1;endArrow=none;html=1;rounded=0;startFill=0;" edge="1" parent="1">
          <mxGeometry width="50" height="50" relative="1" as="geometry">
            <mxPoint x="790" y="616" as="sourcePoint" />
            <mxPoint x="710" y="780" as="targetPoint" />
            <Array as="points">
              <mxPoint x="760" y="750" />
              <mxPoint x="740" y="790" />
            </Array>
          </mxGeometry>
        </mxCell>
        <mxCell id="7pL1vy89-nhijJ_iRDwn-336" value="" style="ellipse;whiteSpace=wrap;html=1;aspect=fixed;fillColor=#000000;" vertex="1" parent="1">
          <mxGeometry x="708" y="777" width="6" height="6" as="geometry" />
        </mxCell>
        <mxCell id="7pL1vy89-nhijJ_iRDwn-338" value="" style="curved=1;endArrow=none;html=1;rounded=0;startFill=0;" edge="1" parent="1">
          <mxGeometry width="50" height="50" relative="1" as="geometry">
            <mxPoint x="879" y="616.5" as="sourcePoint" />
            <mxPoint x="988" y="774" as="targetPoint" />
            <Array as="points">
              <mxPoint x="912" y="761" />
              <mxPoint x="952" y="781" />
            </Array>
          </mxGeometry>
        </mxCell>
        <mxCell id="7pL1vy89-nhijJ_iRDwn-339" value="" style="ellipse;whiteSpace=wrap;html=1;aspect=fixed;fillColor=#000000;" vertex="1" parent="1">
          <mxGeometry x="987" y="771" width="6" height="6" as="geometry" />
        </mxCell>
      </root>
    </mxGraphModel>
  </diagram>
</mxfile>
